<svg xmlns="http://www.w3.org/2000/svg" width="31" height="31" viewBox="0 0 31 31"><defs><style>.a,.e{fill:none;}.a{stroke:#fafafa;stroke-width:1.5px;}.b{fill:rgba(255,255,255,0);}.c{fill:#fff;}.d{stroke:none;}</style></defs><g transform="translate(-16 -70)"><g class="a" transform="translate(16 70)"><circle class="d" cx="15.5" cy="15.5" r="15.5"/><circle class="e" cx="15.5" cy="15.5" r="14.75"/></g><g transform="translate(20 73)"><rect class="b" width="24" height="24"/><path class="c" d="M17.591,14H.409A.4.4,0,0,1,0,13.611v-.778a.4.4,0,0,1,.409-.389H2.454V7a.8.8,0,0,1,.818-.778H6.546V.778A.8.8,0,0,1,7.364,0h3.272a.8.8,0,0,1,.819.778V3.111h3.272a.8.8,0,0,1,.818.778v8.555h2.046a.4.4,0,0,1,.409.389v.778A.4.4,0,0,1,17.591,14Zm-4.909-3.111a.4.4,0,0,0-.409.389v.778a.4.4,0,0,0,.409.389H13.5a.4.4,0,0,0,.409-.389v-.778a.4.4,0,0,0-.409-.389Zm-4.09,0a.4.4,0,0,0-.409.389v.778a.4.4,0,0,0,.409.389h.818a.4.4,0,0,0,.409-.389v-.778a.4.4,0,0,0-.409-.389Zm-4.091,0a.4.4,0,0,0-.409.389v.778a.4.4,0,0,0,.409.389h.818a.4.4,0,0,0,.409-.389v-.778a.4.4,0,0,0-.409-.389Zm8.182-3.112a.4.4,0,0,0-.409.389v.778a.4.4,0,0,0,.409.388H13.5a.4.4,0,0,0,.409-.388V8.167a.4.4,0,0,0-.409-.389Zm-4.09,0a.4.4,0,0,0-.409.389v.778a.4.4,0,0,0,.409.388h.818a.4.4,0,0,0,.409-.388V8.167a.4.4,0,0,0-.409-.389Zm-4.091,0a.4.4,0,0,0-.409.389v.778a.4.4,0,0,0,.409.388h.818a.4.4,0,0,0,.409-.388V8.167a.4.4,0,0,0-.409-.389Zm8.182-3.111a.4.4,0,0,0-.409.389v.778a.4.4,0,0,0,.409.389H13.5a.4.4,0,0,0,.409-.389V5.055a.4.4,0,0,0-.409-.389Zm-4.09,0a.4.4,0,0,0-.409.389v.778a.4.4,0,0,0,.409.389h.818a.4.4,0,0,0,.409-.389V5.055a.4.4,0,0,0-.409-.389Zm0-3.112a.4.4,0,0,0-.409.389v.778a.4.4,0,0,0,.409.388h.818a.4.4,0,0,0,.409-.388V1.945a.4.4,0,0,0-.409-.389Z" transform="translate(3 5)"/></g></g></svg>