<svg xmlns="http://www.w3.org/2000/svg" width="24" height="24" viewBox="0 0 24 24"><defs><style>.a{fill:rgba(255,255,255,0);}.b{fill:#605e5c;}</style></defs><rect class="a" width="24" height="24"/><path class="b" d="M8,16a8,8,0,1,1,8-8A8.009,8.009,0,0,1,8,16ZM8,1.6A6.4,6.4,0,1,0,14.4,8,6.407,6.407,0,0,0,8,1.6Zm.4,9.6H7.6a.4.4,0,0,1-.4-.4v-2h-2a.4.4,0,0,1-.4-.4V7.6a.4.4,0,0,1,.4-.4h2v-2a.4.4,0,0,1,.4-.4h.8a.4.4,0,0,1,.4.4v2h2a.4.4,0,0,1,.4.4v.8a.4.4,0,0,1-.4.4h-2v2A.4.4,0,0,1,8.4,11.2Z" transform="translate(4 4)"/></svg>