<svg xmlns="http://www.w3.org/2000/svg" width="55.452" height="38.641" viewBox="0 0 55.452 38.641">
  <g id="Group_15668" data-name="Group 15668" transform="translate(-80.058 -570.359)">
    <g id="Group_247" data-name="Group 247" transform="translate(80.058 570.359)">
      <path id="Path_2430" data-name="Path 2430" d="M212.376,333.173c1.355-2.609,2.589-5,3.843-7.386a1.508,1.508,0,0,1,1.5-.735c9.663.008,19.327-.049,28.99.029,4.405.036,7.019,4.8,4.963,8.865-1.945,3.843-3.943,7.659-5.922,11.485-.969,1.874-1.92,3.759-2.928,5.612a8.966,8.966,0,0,1-8.327,5.05q-11.126.029-22.251-.008a4.375,4.375,0,0,0-2.28.591q-5.835,3.334-11.706,6.606c-.339.19-.694.634-1.128.24s-.016-.8.158-1.134c2.313-4.507,4.668-8.993,6.951-13.516a1.411,1.411,0,0,1,1.491-.852c4.2.007,8.392-.006,12.588-.009,4.959,0,9.918-.048,14.876.016a4.945,4.945,0,0,0,4.956-3.012c1.355-2.766,2.824-5.476,4.234-8.215,1.156-2.243.328-3.622-2.183-3.624q-13.16-.009-26.32,0Z" transform="translate(-196.938 -325.04)" fill="#343536"/>
      <path id="Path_2431" data-name="Path 2431" d="M253.351,372.821q5.908,0,11.816,0c1.656,0,1.93.44,1.2,1.872-.54,1.052-1.111,2.089-1.634,3.149a2.938,2.938,0,0,1-2.814,1.8q-12.134.01-24.267.023c-.742,0-.906-.177-.532-.872.939-1.746,1.858-3.505,2.709-5.3.336-.706.853-.685,1.457-.684Q247.315,372.827,253.351,372.821Z" transform="translate(-226.747 -360.659)" fill="#ffa800"/>
    </g>
  </g>
</svg>
