<svg xmlns="http://www.w3.org/2000/svg" width="15.847" height="21.399" viewBox="0 0 15.847 21.399"><defs><style>.a,.b,.d{fill:none;}.a,.b,.c,.d{stroke:#605e5c;stroke-width:1.4px;}.a{stroke-linejoin:round;}.b{stroke-linecap:round;}.b,.c,.d{stroke-miterlimit:10;}.c{fill:#475257;}</style></defs><g transform="translate(-115.467 -878.322)"><path class="a" d="M128.371,887.4h1.235a1.01,1.01,0,0,1,1.008,1.008v15.171a1.01,1.01,0,0,1-1.008,1.008H117.175a1.011,1.011,0,0,1-1.008-1.008V888.4a1.011,1.011,0,0,1,1.008-1.008h1.235" transform="translate(0 -5.561)"/><path class="b" d="M134.39,880.668h-1.683a1.676,1.676,0,0,0-3.352,0h-1.683v2.563h6.718Z" transform="translate(-7.64 0)"/><g transform="translate(119.023 886.908)"><g transform="translate(0)"><rect class="c" width="0.289" height="0.289"/><line class="d" x2="6.827" transform="translate(2.155 0.145)"/></g><g transform="translate(0 2.715)"><rect class="c" width="0.289" height="0.289"/><line class="d" x2="6.827" transform="translate(2.155 0.144)"/></g><g transform="translate(0 5.43)"><rect class="c" width="0.289" height="0.289"/><line class="d" x2="6.827" transform="translate(2.155 0.144)"/></g><g transform="translate(0 8.146)"><rect class="c" width="0.289" height="0.289"/><line class="d" x2="6.827" transform="translate(2.155 0.145)"/></g></g></g></svg>