<svg xmlns="http://www.w3.org/2000/svg" xmlns:xlink="http://www.w3.org/1999/xlink" width="178" height="56" viewBox="0 0 178 56"><defs><style>.a{fill:none;}.b{fill:#999;}.c{fill:#ffa800;}.d{fill:url(#a);}.e{fill:#343536;font-size:14px;font-family:OpenSans-Bold, Open Sans;font-weight:700;letter-spacing:-0.04em;}</style><linearGradient id="a" x1="0.912" y1="0.872" x2="0.104" y2="0.121" gradientUnits="objectBoundingBox"><stop offset="0" stop-color="#ffa800"/><stop offset="1" stop-color="#999"/></linearGradient></defs><rect class="a" width="178" height="56"/><g transform="translate(0.358)"><g transform="translate(-1588.429 -1588.368)"><g transform="translate(1600.071 1600.368)"><path class="b" d="M1621.017,1684.656H1609.84a9.78,9.78,0,0,0-9.769-9.769V1663.71A20.969,20.969,0,0,1,1621.017,1684.656Z" transform="translate(-1600.071 -1652.656)"/><path class="c" d="M1684.585,1663.71v11.176a9.78,9.78,0,0,0-9.77,9.769h-11.176A20.969,20.969,0,0,1,1684.585,1663.71Z" transform="translate(-1652.585 -1652.656)"/><circle class="d" cx="6" cy="6" r="6" transform="translate(10)"/></g></g><text class="e" transform="translate(54 34)"><tspan x="0" y="0">DOCTOR PAYOUT</tspan></text></g></svg>