<svg xmlns="http://www.w3.org/2000/svg" width="24" height="24" viewBox="0 0 24 24"><defs><style>.a{fill:rgba(255,255,255,0);}.b{fill:#999;}</style></defs><g transform="translate(-16 -72)"><g transform="translate(16 72)"><rect class="a" width="24" height="24"/><path class="b" d="M15,18a3,3,0,0,1-2.824-2H.508a.5.5,0,0,1-.5-.5v-1a.5.5,0,0,1,.5-.5H12.177a3,3,0,0,1,2.817-2H15a3,3,0,0,1,.676,5.922A3.032,3.032,0,0,1,15,18Zm-.007-4a1,1,0,1,0,1,1A1,1,0,0,0,14.994,14ZM9,11.977A3.006,3.006,0,0,1,6.183,10H.508a.5.5,0,0,1-.5-.5v-1a.5.5,0,0,1,.5-.5H6.183a3,3,0,0,1,5.634,0h5.675a.5.5,0,0,1,.5.5v1a.5.5,0,0,1-.5.5H11.817A3.006,3.006,0,0,1,9,11.977ZM9,8a1,1,0,1,0,1,1A1,1,0,0,0,9,8ZM3,6A3,3,0,0,1,2.49.043,2.961,2.961,0,0,1,3,0,3,3,0,0,1,5.823,2H17.492a.5.5,0,0,1,.5.5v1a.5.5,0,0,1-.5.5H5.823A3,3,0,0,1,3,6Zm.006-4a1,1,0,1,0,1,1A1,1,0,0,0,3.006,2Z" transform="translate(3 3)"/></g></g></svg>