<svg xmlns="http://www.w3.org/2000/svg" width="24" height="24" viewBox="0 0 24 24"><defs><style>.a{fill:rgba(255,255,255,0);}.b{fill:#999;}</style></defs><rect class="a" width="24" height="24"/><path class="b" d="M3.475,20a.992.992,0,0,1-.7-.291L.291,17.23a1,1,0,0,1,0-1.409L3.119,12.91a3.3,3.3,0,0,1,2.3-.923c.1,0,.2,0,.293.013h4.733A1.577,1.577,0,0,1,12,13.35,1.481,1.481,0,0,1,10.727,15H6.5a.5.5,0,0,0,0,1h4A2.492,2.492,0,0,0,13,13.59l3.329-3.3a1,1,0,0,1,1.419,0H17.7a1,1,0,0,1,0,1.42l-5.557,5.56a2.5,2.5,0,0,1-1.769.73H6.3a.993.993,0,0,0-.7.29L4.18,19.71A.994.994,0,0,1,3.475,20Zm9.271-7.581h0A2.474,2.474,0,0,0,12,11.5V8a1,1,0,1,1,2,0v3.17l-1.249,1.249ZM9.2,10H6.97L4.465,6.7A2.81,2.81,0,0,0,3.751,6a1.566,1.566,0,0,0-.9-.293V4.61h.868A3.445,3.445,0,0,0,5.7,4.148a1.419,1.419,0,0,0,.574-.84H2.743l.308-.924H6.3a1.594,1.594,0,0,0-.518-1.008A2.353,2.353,0,0,0,4.213.928h-1.5L3.023,0h6.65L9.365.928H7.419a2.839,2.839,0,0,1,.532,1.456H9.687l-.308.924H7.923a2.447,2.447,0,0,1-.6,1.231,3.528,3.528,0,0,1-1.777.924,5.382,5.382,0,0,1,.63.728L9.2,10Z" transform="translate(2.999 2)"/></svg>