<svg xmlns="http://www.w3.org/2000/svg" width="24" height="24" viewBox="0 0 24 24"><defs><style>.a{fill:rgba(255,255,255,0);}.b{fill:#fff;}</style></defs><rect class="a" width="24" height="24"/><path class="b" d="M15,22H6a2,2,0,0,1-2-2H15a2,2,0,0,0,2-2V4a2,2,0,0,1,2,2V18A4,4,0,0,1,15,22Zm-2-4H2a2,2,0,0,1-2-2V7.24A3.017,3.017,0,0,1,.88,5.12L5.12.88A3.017,3.017,0,0,1,7.24,0H13a2,2,0,0,1,2,2V16A2,2,0,0,1,13,18ZM2,8v8H13V2H8V7A1,1,0,0,1,7,8Zm8.5,5h-6a.5.5,0,0,1-.5-.5v-1a.5.5,0,0,1,.5-.5h6a.5.5,0,0,1,.5.5v1A.5.5,0,0,1,10.5,13Z" transform="translate(2 1)"/></svg>