<svg xmlns="http://www.w3.org/2000/svg" width="24" height="24" viewBox="0 0 24 24"><defs><style>.a{fill:rgba(255,255,255,0);}.b{fill:#999;}</style></defs><g transform="translate(-16 -72)"><g transform="translate(16 72)"><rect class="a" width="24" height="24"/><path class="b" d="M21.5,18H.5a.5.5,0,0,1-.5-.5v-1A.5.5,0,0,1,.5,16H3V9A1,1,0,0,1,4,8H8V1A1,1,0,0,1,9,0h4a1,1,0,0,1,1,1V4h4a1,1,0,0,1,1,1V16h2.5a.5.5,0,0,1,.5.5v1A.5.5,0,0,1,21.5,18Zm-6-4a.5.5,0,0,0-.5.5v1a.5.5,0,0,0,.5.5h1a.5.5,0,0,0,.5-.5v-1a.5.5,0,0,0-.5-.5Zm-5,0a.5.5,0,0,0-.5.5v1a.5.5,0,0,0,.5.5h1a.5.5,0,0,0,.5-.5v-1a.5.5,0,0,0-.5-.5Zm-5,0a.5.5,0,0,0-.5.5v1a.5.5,0,0,0,.5.5h1a.5.5,0,0,0,.5-.5v-1a.5.5,0,0,0-.5-.5Zm10-4a.5.5,0,0,0-.5.5v1a.5.5,0,0,0,.5.5h1a.5.5,0,0,0,.5-.5v-1a.5.5,0,0,0-.5-.5Zm-5,0a.5.5,0,0,0-.5.5v1a.5.5,0,0,0,.5.5h1a.5.5,0,0,0,.5-.5v-1a.5.5,0,0,0-.5-.5Zm-5,0a.5.5,0,0,0-.5.5v1a.5.5,0,0,0,.5.5h1a.5.5,0,0,0,.5-.5v-1a.5.5,0,0,0-.5-.5Zm10-4a.5.5,0,0,0-.5.5v1a.5.5,0,0,0,.5.5h1a.5.5,0,0,0,.5-.5v-1a.5.5,0,0,0-.5-.5Zm-5,0a.5.5,0,0,0-.5.5v1a.5.5,0,0,0,.5.5h1a.5.5,0,0,0,.5-.5v-1a.5.5,0,0,0-.5-.5Zm0-4a.5.5,0,0,0-.5.5v1a.5.5,0,0,0,.5.5h1a.5.5,0,0,0,.5-.5v-1a.5.5,0,0,0-.5-.5Z" transform="translate(1 3)"/></g></g></svg>